<svg width="180" height="180" viewBox="0 0 180 180" xmlns="http://www.w3.org/2000/svg">
  <defs>
    <!-- 主渐变 -->
    <linearGradient id="apple-gradient" x1="0%" y1="0%" x2="100%" y2="100%">
      <stop offset="0%" style="stop-color:#3B82F6;stop-opacity:1" />
      <stop offset="30%" style="stop-color:#6366F1;stop-opacity:1" />
      <stop offset="70%" style="stop-color:#8B5CF6;stop-opacity:1" />
      <stop offset="100%" style="stop-color:#A855F7;stop-opacity:1" />
    </linearGradient>
    
    <!-- 次要渐变 -->
    <linearGradient id="apple-secondary" x1="0%" y1="0%" x2="100%" y2="100%">
      <stop offset="0%" style="stop-color:#06B6D4;stop-opacity:1" />
      <stop offset="100%" style="stop-color:#3B82F6;stop-opacity:1" />
    </linearGradient>
    
    <!-- 阴影滤镜 -->
    <filter id="apple-shadow" x="-20%" y="-20%" width="140%" height="140%">
      <feDropShadow dx="0" dy="4" stdDeviation="8" flood-color="rgba(0,0,0,0.15)"/>
    </filter>
    
    <!-- 内发光 -->
    <filter id="inner-glow" x="-50%" y="-50%" width="200%" height="200%">
      <feGaussianBlur stdDeviation="2" result="coloredBlur"/>
      <feMerge> 
        <feMergeNode in="coloredBlur"/>
        <feMergeNode in="SourceGraphic"/>
      </feMerge>
    </filter>
  </defs>
  
  <!-- 圆角背景 -->
  <rect x="10" y="10" width="160" height="160" rx="35" ry="35" 
        fill="url(#apple-gradient)" filter="url(#apple-shadow)"/>
  
  <!-- 内部装饰圆环 -->
  <circle cx="90" cy="90" r="65" fill="none" stroke="rgba(255,255,255,0.1)" stroke-width="2"/>
  <circle cx="90" cy="90" r="45" fill="none" stroke="rgba(255,255,255,0.05)" stroke-width="1"/>
  
  <!-- M字母主体 -->
  <g transform="translate(90, 90)">
    <path d="M -22 -15 L -22 18 L -14 18 L -14 -3 L -7 8 L 0 -3 L 7 8 L 14 -3 L 14 18 L 22 18 L 22 -15 L 12 -15 L 0 5 L -12 -15 Z" 
          fill="white" 
          opacity="0.95"
          filter="url(#inner-glow)"/>
  </g>
  
  <!-- 装饰连接点 -->
  <circle cx="45" cy="65" r="4" fill="url(#apple-secondary)" opacity="0.7"/>
  <circle cx="135" cy="65" r="4" fill="url(#apple-secondary)" opacity="0.7"/>
  <circle cx="45" cy="115" r="4" fill="url(#apple-secondary)" opacity="0.7"/>
  <circle cx="135" cy="115" r="4" fill="url(#apple-secondary)" opacity="0.7"/>
  
  <!-- 连接线 -->
  <path d="M 45 65 Q 90 35 135 65" 
        stroke="rgba(255,255,255,0.2)" 
        stroke-width="2" 
        fill="none"/>
  <path d="M 45 115 Q 90 145 135 115" 
        stroke="rgba(255,255,255,0.2)" 
        stroke-width="2" 
        fill="none"/>
  
  <!-- 外发光效果 -->
  <rect x="10" y="10" width="160" height="160" rx="35" ry="35" 
        fill="none" stroke="url(#apple-gradient)" stroke-width="1" opacity="0.3"/>
  
  <!-- 顶部高光 -->
  <defs>
    <linearGradient id="highlight" x1="0%" y1="0%" x2="0%" y2="100%">
      <stop offset="0%" style="stop-color:rgba(255,255,255,0.3);stop-opacity:1" />
      <stop offset="50%" style="stop-color:rgba(255,255,255,0.1);stop-opacity:1" />
      <stop offset="100%" style="stop-color:rgba(255,255,255,0);stop-opacity:1" />
    </linearGradient>
  </defs>
  <rect x="10" y="10" width="160" height="80" rx="35" ry="35" 
        fill="url(#highlight)"/>
</svg> 