<svg width="32" height="32" viewBox="0 0 32 32" xmlns="http://www.w3.org/2000/svg">
  <defs>
    <!-- 主渐变 -->
    <linearGradient id="favicon-gradient" x1="0%" y1="0%" x2="100%" y2="100%">
      <stop offset="0%" style="stop-color:#3B82F6;stop-opacity:1" />
      <stop offset="50%" style="stop-color:#6366F1;stop-opacity:1" />
      <stop offset="100%" style="stop-color:#8B5CF6;stop-opacity:1" />
    </linearGradient>
    
    <!-- 内环渐变 -->
    <linearGradient id="inner-gradient" x1="0%" y1="0%" x2="100%" y2="100%">
      <stop offset="0%" style="stop-color:#06B6D4;stop-opacity:0.8" />
      <stop offset="100%" style="stop-color:#3B82F6;stop-opacity:0.8" />
    </linearGradient>
    
    <!-- 阴影滤镜 -->
    <filter id="favicon-shadow" x="-20%" y="-20%" width="140%" height="140%">
      <feDropShadow dx="0" dy="1" stdDeviation="1" flood-color="rgba(0,0,0,0.2)"/>
    </filter>
  </defs>
  
  <!-- 背景圆形 -->
  <circle cx="16" cy="16" r="14.5" fill="url(#favicon-gradient)" filter="url(#favicon-shadow)"/>
  
  <!-- 内部装饰圆环 -->
  <circle cx="16" cy="16" r="11" fill="none" stroke="rgba(255,255,255,0.15)" stroke-width="0.5"/>
  
  <!-- M字母主体 -->
  <g transform="translate(16, 16)">
    <path d="M -4 -3 L -4 3.5 L -2.5 3.5 L -2.5 0 L -1 1.5 L 0 0 L 1 1.5 L 2.5 0 L 2.5 3.5 L 4 3.5 L 4 -3 L 2 -3 L 0 1 L -2 -3 Z" 
          fill="white" 
          opacity="0.95"/>
  </g>
  
  <!-- 装饰连接点 -->
  <circle cx="8" cy="12" r="0.8" fill="url(#inner-gradient)" opacity="0.6"/>
  <circle cx="24" cy="12" r="0.8" fill="url(#inner-gradient)" opacity="0.6"/>
  <circle cx="8" cy="20" r="0.8" fill="url(#inner-gradient)" opacity="0.6"/>
  <circle cx="24" cy="20" r="0.8" fill="url(#inner-gradient)" opacity="0.6"/>
  
  <!-- 连接线 -->
  <path d="M 8 12 Q 16 8 24 12" 
        stroke="rgba(255,255,255,0.2)" 
        stroke-width="0.5" 
        fill="none"/>
  <path d="M 8 20 Q 16 24 24 20" 
        stroke="rgba(255,255,255,0.2)" 
        stroke-width="0.5" 
        fill="none"/>
  
  <!-- 外发光效果 -->
  <circle cx="16" cy="16" r="14.5" fill="none" stroke="url(#favicon-gradient)" stroke-width="0.3" opacity="0.3"/>
</svg> 